<svg
  aria-hidden="true"
  style="position: absolute; width: 0; height: 0; overflow: hidden;"
  version="1.1"
  xmlns="http://www.w3.org/2000/svg"
  xmlns:xlink="http://www.w3.org/1999/xlink"
>
<defs>
<symbol id="icon-arrow-left" viewBox="0 0 20 20">
<path
        d="M3.828 9l6.071-6.071-1.414-1.414-8.485 8.485 8.485 8.485 1.414-1.414-6.071-6.071h16.172v-2h-16.172z"
      />
</symbol>
<symbol id="icon-arrow-right" viewBox="0 0 20 20">
<path
        d="M16.172 9l-6.071-6.071 1.414-1.414 8.485 8.485-8.485 8.485-1.414-1.414 6.071-6.071h-16.172v-2z"
      />
</symbol>
<symbol id="icon-film" viewBox="0 0 32 32">
<path
        fill="none"
        stroke="#fff"
        style="stroke: var(--color1, #fff)"
        stroke-linejoin="round"
        stroke-linecap="round"
        stroke-miterlimit="4"
        stroke-width="2.6667"
        d="M26.427 2.667h-20.853c-1.605 0-2.907 1.301-2.907 2.907v20.853c0 1.605 1.301 2.907 2.907 2.907h20.853c1.605 0 2.907-1.301 2.907-2.907v-20.853c0-1.605-1.301-2.907-2.907-2.907z"
      />
<path
        fill="none"
        stroke="#fff"
        style="stroke: var(--color1, #fff)"
        stroke-linejoin="round"
        stroke-linecap="round"
        stroke-miterlimit="4"
        stroke-width="2.6667"
        d="M9.333 2.667v26.667"
      />
<path
        fill="none"
        stroke="#fff"
        style="stroke: var(--color1, #fff)"
        stroke-linejoin="round"
        stroke-linecap="round"
        stroke-miterlimit="4"
        stroke-width="2.6667"
        d="M22.667 2.667v26.667"
      />
<path
        fill="none"
        stroke="#fff"
        style="stroke: var(--color1, #fff)"
        stroke-linejoin="round"
        stroke-linecap="round"
        stroke-miterlimit="4"
        stroke-width="2.6667"
        d="M2.667 16h26.667"
      />
<path
        fill="none"
        stroke="#fff"
        style="stroke: var(--color1, #fff)"
        stroke-linejoin="round"
        stroke-linecap="round"
        stroke-miterlimit="4"
        stroke-width="2.6667"
        d="M2.667 9.333h6.667"
      />
<path
        fill="none"
        stroke="#fff"
        style="stroke: var(--color1, #fff)"
        stroke-linejoin="round"
        stroke-linecap="round"
        stroke-miterlimit="4"
        stroke-width="2.6667"
        d="M2.667 22.667h6.667"
      />
<path
        fill="none"
        stroke="#fff"
        style="stroke: var(--color1, #fff)"
        stroke-linejoin="round"
        stroke-linecap="round"
        stroke-miterlimit="4"
        stroke-width="2.6667"
        d="M22.667 22.667h6.667"
      />
<path
        fill="none"
        stroke="#fff"
        style="stroke: var(--color1, #fff)"
        stroke-linejoin="round"
        stroke-linecap="round"
        stroke-miterlimit="4"
        stroke-width="2.6667"
        d="M22.667 9.333h6.667"
      />
</symbol>
<symbol id="icon-search-2" viewBox="0 0 32 32">
<path
        fill="none"
        stroke="#fff"
        style="stroke: var(--color1, #fff)"
        stroke-linejoin="round"
        stroke-linecap="round"
        stroke-miterlimit="4"
        stroke-width="2.6667"
        d="M14.667 25.333c5.891 0 10.667-4.776 10.667-10.667s-4.776-10.667-10.667-10.667c-5.891 0-10.667 4.776-10.667 10.667s4.776 10.667 10.667 10.667z"
      />
<path
        fill="none"
        stroke="#fff"
        style="stroke: var(--color1, #fff)"
        stroke-linejoin="round"
        stroke-linecap="round"
        stroke-miterlimit="4"
        stroke-width="2.6667"
        d="M28 28.001l-5.8-5.8"
      />
</symbol>
</defs>
</svg>
